<?xml version="1.0" encoding="iso-8859-1"?>
<!-- Generator: Adobe Illustrator 19.0.0, SVG Export Plug-In . SVG Version: 6.00 Build 0)  -->
<svg version="1.1" id="Layer_1" xmlns="http://www.w3.org/2000/svg" xmlns:xlink="http://www.w3.org/1999/xlink" x="0px" y="0px"
	 viewBox="0 0 512 512" style="enable-background:new 0 0 512 512;" xml:space="preserve">
<g>
	<g>
		<path d="M407.692,337.38c-6.95-12.835-15.601-28.806-21.467-55.186l-3.401-17.016l16.08,16.08c3.769,3.774,9.892,3.774,13.66,0
			c3.774-3.771,3.774-9.889,0-13.66l-38.641-38.642c-3.009-3.012-7.63-3.691-11.389-1.686c-3.752,2.01-5.748,6.238-4.913,10.413
			l9.703,48.503c6.49,29.214,16.252,47.238,23.379,60.396c13.519,24.964,17.153,31.672-30.83,85.655
			c-10.71,12.049-19.901,16.879-27.323,14.389c-7.096-2.392-25.245-15.863-40.41-89.145c-8.757-42.306-11.988-83.384-12.019-83.794
			c-0.399-5.172-4.809-9.085-10-8.908c-5.186,0.198-9.29,4.457-9.292,9.648c0,0.382-0.135,39.318-9.601,124.52
			c-3.781,34.016-15.717,55.905-32.747,60.049c-17.148,4.165-38.554-9.375-55.877-35.361c-31.526-47.29-14.29-94.204-2.887-125.249
			c1.476-4.017,2.868-7.809,4.014-11.243c3.998-11.99,1.941-25.079-5.118-32.568c-4.972-5.279-11.877-7.218-18.95-5.319
			c-27.981,7.512-49.226,74.418-62.122,129.224c-12.729,54.094-23.026,56.697-23.042,56.714c-0.092-0.012-9.639-2.5-23.035-45.785
			c-7.566-24.453-12.266-48.922-12.311-49.167c-1.003-5.243-6.066-8.689-11.299-7.679c-5.241,0.998-8.679,6.054-7.682,11.295
			c0.203,1.066,5.066,26.408,13.151,52.273c12.512,40.037,25.075,58.042,40.738,58.379c0.156,0.002,0.309,0.005,0.462,0.005
			c17.5,0,30.03-21.481,41.825-71.61c24.262-103.107,45.785-114.048,48.33-114.963c1.241,1.403,2.79,6.896,0.724,13.094
			c-1.052,3.156-2.396,6.813-3.818,10.688c-11.979,32.603-32.026,87.174,4.946,142.628c19.137,28.705,42.938,44.73,65.514,44.728
			c3.71,0,7.389-0.432,11.005-1.311c14.917-3.63,40.91-18.42,47.384-76.69c1.429-12.858,2.646-24.653,3.686-35.429
			c12.729,59.24,29.842,91.73,52.266,99.284c15.45,5.196,31.585-1.474,47.929-19.863
			C428.536,384.068,425.232,369.764,407.692,337.38z"/>
	</g>
</g>
<g>
	<g>
		<path d="M333.421,198.522c-4.573-2.742-10.509-1.26-13.252,3.314c-4.066,6.776-7.017,10.47-8.924,12.461
			c-1.189-4.125-2.101-11.067-2.113-17.151c0-4.381-2.948-8.212-7.182-9.337c-4.224-1.125-8.693,0.742-10.865,4.545
			c-8.686,15.198-13.422,20.373-15.766,22.096c-2.285-4.45-3.693-16.377-3.693-26.964c0-0.002,0-0.004,0-0.004
			c0-5.335-4.896-9.657-10.226-9.657c-5.335,0-10.229,4.325-10.229,9.66c0,36.195,11.618,44.685,18.542,46.524
			c8.781,2.33,16.887-3.014,24.033-11.23c2.377,5.95,6.127,10.752,11.981,12.374c1.38,0.382,2.729,0.561,4.05,0.561
			c11.056-0.001,20.12-12.54,26.96-23.938C339.48,207.201,337.997,201.267,333.421,198.522z"/>
	</g>
</g>
<g>
	<g>
		<path d="M101.398,217.739c-4.629-2.642-10.53-1.036-13.179,3.595l-38.641,67.622c-2.649,4.632-1.038,10.533,3.594,13.179
			c1.512,0.866,3.158,1.276,4.783,1.276c3.354,0,6.613-1.75,8.396-4.87l38.641-67.622
			C107.64,226.287,106.03,220.386,101.398,217.739z"/>
	</g>
</g>
<g>
	<g>
		<path d="M125.091,136.129c-11.729-35.181-37.073-35.586-38.146-35.586c-5.335,0-9.66,4.325-9.66,9.66s4.325,9.66,9.66,9.66
			c0.123,0,12.679,0.961,19.816,22.376c1.349,4.047,5.118,6.607,9.163,6.607c1.014,0,2.045-0.16,3.056-0.498
			C124.041,146.661,126.777,141.191,125.091,136.129z"/>
	</g>
</g>
<g>
	<g>
		<path d="M252.288,97.473c-9.564-19.554-34.995-25.15-37.865-25.724c-5.241-1.039-10.321,2.348-11.366,7.578
			c-1.047,5.232,2.344,10.322,7.578,11.368c4.84,0.968,19.693,5.85,24.297,15.266c2.516,5.141,1.84,11.436-2.064,19.241
			c-2.384,4.772-0.45,10.575,4.321,12.961c1.387,0.693,2.861,1.023,4.314,1.023c3.542,0,6.955-1.958,8.649-5.342
			C256.835,120.475,257.554,108.238,252.288,97.473z"/>
	</g>
</g>
<g>
	<g>
		<path d="M511.773,436.582L433.069,78.047l32.953,38.443c3.472,4.052,9.568,4.521,13.622,1.048
			c4.049-3.473,4.519-9.571,1.047-13.621l-57.962-67.622c-2.882-3.361-7.677-4.335-11.644-2.36
			c-3.962,1.975-6.075,6.393-5.127,10.717l86.943,396.071c0.991,4.514,4.988,7.592,9.427,7.592c0.686,0,1.382-0.073,2.08-0.227
			C509.62,446.945,512.917,441.792,511.773,436.582z"/>
	</g>
</g>
<g>
</g>
<g>
</g>
<g>
</g>
<g>
</g>
<g>
</g>
<g>
</g>
<g>
</g>
<g>
</g>
<g>
</g>
<g>
</g>
<g>
</g>
<g>
</g>
<g>
</g>
<g>
</g>
<g>
</g>
</svg>
