<?xml version="1.0" encoding="iso-8859-1"?>
<!-- Generator: Adobe Illustrator 19.0.0, SVG Export Plug-In . SVG Version: 6.00 Build 0)  -->
<svg version="1.1" id="Layer_1" xmlns="http://www.w3.org/2000/svg" xmlns:xlink="http://www.w3.org/1999/xlink" x="0px" y="0px"
	 viewBox="0 0 512 512" style="enable-background:new 0 0 512 512;" xml:space="preserve">
<g>
	<g>
		<path d="M256,0C114.84,0,0,114.841,0,256c0,141.16,114.84,256,256,256c141.16,0,256-114.84,256-256C512,114.841,397.16,0,256,0z
			 M256.278,493.037C125.574,493.037,18.963,386.704,18.963,256c0-61.948,23.898-118.411,62.945-160.684l50.845,50.845
			c-0.002,0.269,0.544,0.532,0.544,0.802c0,39.655,14.78,71.765,38.484,79.039v200.88c0,5.236,4.245,9.482,9.482,9.482
			s9.481-4.245,9.481-9.482v-200.88c4.741-1.684,9.812-4.709,14.125-8.84l118.616,118.616v91.023c0,5.236,4.245,9.482,9.482,9.482
			s9.482-4.245,9.482-9.482v-72.06l74.796,75.352C374.97,469.139,318.227,493.037,256.278,493.037z M151.986,138.578
			c2.086-31.766,15.771-53.244,28.162-53.244c13.454,0,28.444,25.31,28.444,61.63c0,16.196-2.984,30.191-7.482,40.741
			L151.986,138.578z M190.47,203.878c-3.356,3.058-6.889,4.714-10.322,4.714c-10.854,0-22.704-16.479-26.88-41.915L190.47,203.878z
			 M430.648,416.685l-88.201-88.759v-99.185h17.852c15.683,0,29.555-13.957,29.555-29.656V94.815c0-5.236-4.245-9.482-9.482-9.482
			s-9.482,4.245-9.482,9.482v104.27c0,5.332-5.278,10.693-10.592,10.693h-17.852V94.815c0-5.236-4.245-9.482-9.482-9.482
			s-9.482,4.245-9.482,9.482v114.963h-20.081c-5.225,0-8.363-5.45-8.363-10.693V94.815c0-5.236-4.245-9.482-9.482-9.482
			s-9.482,4.245-9.482,9.482v104.27c0,15.699,11.644,29.656,27.326,29.656h20.081v80.222L215.738,201.774
			c7.718-14.281,12.095-33.449,12.095-54.811c0-45.192-20.963-80.593-47.546-80.593c-21.357,0-39.053,22.857-45.164,55.273
			L95.35,81.907c42.273-39.046,98.72-62.944,160.667-62.944c130.704,0,237.308,106.335,237.308,237.037
			C493.324,317.949,469.697,374.412,430.648,416.685z"/>
	</g>
</g>
<g>
</g>
<g>
</g>
<g>
</g>
<g>
</g>
<g>
</g>
<g>
</g>
<g>
</g>
<g>
</g>
<g>
</g>
<g>
</g>
<g>
</g>
<g>
</g>
<g>
</g>
<g>
</g>
<g>
</g>
</svg>
