<?xml version="1.0" encoding="iso-8859-1"?>
<!-- Generator: Adobe Illustrator 19.0.0, SVG Export Plug-In . SVG Version: 6.00 Build 0)  -->
<svg version="1.1" id="Layer_1" xmlns="http://www.w3.org/2000/svg" xmlns:xlink="http://www.w3.org/1999/xlink" x="0px" y="0px"
	 viewBox="0 0 512 512" style="enable-background:new 0 0 512 512;" xml:space="preserve">
<g>
	<g>
		<path d="M374.379,322.882c-4.864-1.278-9.915,1.221-11.854,5.856c-21.27,50.746-70.567,83.538-125.591,83.538
			c-75.052,0-136.111-61.06-136.111-136.111c0-67.033,49.924-124.922,116.129-134.655c4.976-0.732,8.652-5.02,8.615-10.05
			c-0.038-5.031-3.778-9.264-8.765-9.921c-8.306-1.094-16.797-1.649-25.238-1.649C85.934,119.89,0,205.824,0,311.453
			c0,105.628,85.934,191.563,191.563,191.563c97.26,0,179.06-72.747,190.274-169.218
			C382.417,328.809,379.236,324.154,374.379,322.882z M191.563,482.852c-94.509,0-171.399-76.89-171.399-171.399
			c0-81.299,56.9-149.562,132.966-167.054c-43.747,28.073-72.472,77.291-72.472,131.766c0,86.17,70.105,156.276,156.275,156.276
			c40.658,0,78.591-15.594,106.975-42.242C315.249,445.651,257.362,482.852,191.563,482.852z"/>
	</g>
</g>
<g>
	<g>
		<path d="M508.674,116.969l-25.9-23.384l25.9-23.382c3.165-2.859,4.191-7.402,2.557-11.343c-1.632-3.941-5.546-6.475-9.829-6.21
			l-34.849,1.78l1.78-34.849c0.218-4.261-2.27-8.197-6.21-9.829c-3.943-1.634-8.483-0.608-11.343,2.557l-23.382,25.9l-23.384-25.9
			c-2.859-3.165-7.399-4.191-11.341-2.557c-3.941,1.632-6.428,5.568-6.21,9.829l1.78,34.849l-34.849-1.78
			c-4.309-0.261-8.198,2.27-9.829,6.21c-1.633,3.941-0.608,8.483,2.559,11.343l25.9,23.382l-25.901,23.383
			c-3.165,2.859-4.191,7.402-2.557,11.343c1.631,3.94,5.516,6.455,9.829,6.21l34.849-1.78l-1.78,34.849
			c-0.218,4.261,2.27,8.197,6.21,9.829c3.941,1.633,8.482,0.608,11.343-2.557l23.383-25.901l23.382,25.9
			c1.953,2.164,4.692,3.327,7.487,3.327c1.297,0,2.607-0.25,3.856-0.768c3.941-1.632,6.428-5.568,6.21-9.829l-1.78-34.849
			l34.849,1.78c4.287,0.249,8.197-2.271,9.829-6.21C512.865,124.369,511.84,119.827,508.674,116.969z M460.972,101.068
			l13.146,11.869l-17.687-0.903c-2.823-0.144-5.626,0.922-7.644,2.939c-2.017,2.017-3.085,4.795-2.939,7.644l0.903,17.686
			l-11.867-13.144c-1.913-2.118-4.631-3.327-7.484-3.327c-2.853,0-5.572,1.209-7.484,3.325l-11.868,13.147l0.903-17.687
			c0.146-2.849-0.922-5.627-2.939-7.644c-1.897-1.895-4.463-2.953-7.128-2.953c-0.172,0-0.344,0.005-0.516,0.014l-17.687,0.903
			l13.147-11.868c2.117-1.913,3.325-4.631,3.325-7.484c0-2.853-1.209-5.572-3.327-7.484l-13.144-11.867l17.686,0.903
			c2.852,0.143,5.627-0.922,7.644-2.939c2.017-2.017,3.085-4.795,2.939-7.644l-0.903-17.687l11.869,13.146
			c1.911,2.117,4.63,3.326,7.483,3.326c2.853,0,5.572-1.209,7.484-3.326l11.867-13.146l-0.903,17.687
			c-0.146,2.849,0.922,5.627,2.939,7.644c2.018,2.017,4.779,3.077,7.644,2.939l17.687-0.903l-13.146,11.867
			c-2.117,1.913-3.326,4.631-3.326,7.484C457.646,96.438,458.855,99.156,460.972,101.068z"/>
	</g>
</g>
<g>
</g>
<g>
</g>
<g>
</g>
<g>
</g>
<g>
</g>
<g>
</g>
<g>
</g>
<g>
</g>
<g>
</g>
<g>
</g>
<g>
</g>
<g>
</g>
<g>
</g>
<g>
</g>
<g>
</g>
</svg>
