<?xml version="1.0" encoding="iso-8859-1"?>
<!-- Generator: Adobe Illustrator 19.0.0, SVG Export Plug-In . SVG Version: 6.00 Build 0)  -->
<svg version="1.1" id="Layer_1" xmlns="http://www.w3.org/2000/svg" xmlns:xlink="http://www.w3.org/1999/xlink" x="0px" y="0px"
	 viewBox="0 0 512 512" style="enable-background:new 0 0 512 512;" xml:space="preserve">
<g>
	<g>
		<path d="M459.396,81.457l-26.59-26.59V9.823c0-5.424-4.398-9.823-9.823-9.823s-9.823,4.398-9.823,9.823v45.044l-26.59,26.59
			c-1.842,1.843-2.878,4.341-2.878,6.946v187.856h-58.935v-19.645h28.314c5.424,0,10.398-5.012,10.398-10.436
			c0-56.265-43.623-103.213-97.647-108.196V68.758c0-5.424-4.398-9.823-9.823-9.823c-5.424,0-9.823,4.398-9.823,9.823v69.224
			c-56.48,4.982-98.803,51.931-98.803,108.196c0,5.424,3.823,10.436,9.247,10.436h40.444v19.645h-68.758V88.403
			c0-2.605-1.036-5.103-2.878-6.946l-26.59-26.59V9.823C98.839,4.398,94.441,0,89.017,0s-9.823,4.398-9.823,9.823v45.044
			l-26.59,26.59c-1.842,1.843-2.878,4.341-2.878,6.946v363.434v49.113c0,5.424,3.245,11.05,8.669,11.05h392.902
			c5.424,0,10.976-5.626,10.976-11.05v-49.113V88.403C462.273,85.797,461.237,83.3,459.396,81.457z M166.986,236.969
			c4.902-44.201,42.436-78.58,87.861-78.58c45.424,0,82.959,34.379,87.861,78.58H166.986z M305.113,256.614v19.645H216.71v-19.645
			H305.113z M442.628,492.355H69.372v-29.468h373.257V492.355z M442.628,443.242H69.372V92.471l19.645-19.645l19.645,19.645v192.383
			c0,5.424,3.245,11.05,8.669,11.05h275.031c5.424,0,10.976-5.626,10.976-11.05V92.471l19.645-19.645l19.645,19.645V443.242z"/>
	</g>
</g>
<g>
</g>
<g>
</g>
<g>
</g>
<g>
</g>
<g>
</g>
<g>
</g>
<g>
</g>
<g>
</g>
<g>
</g>
<g>
</g>
<g>
</g>
<g>
</g>
<g>
</g>
<g>
</g>
<g>
</g>
</svg>
