<?xml version="1.0" encoding="iso-8859-1"?>
<!-- Generator: Adobe Illustrator 19.0.0, SVG Export Plug-In . SVG Version: 6.00 Build 0)  -->
<svg version="1.1" id="Layer_1" xmlns="http://www.w3.org/2000/svg" xmlns:xlink="http://www.w3.org/1999/xlink" x="0px" y="0px"
	 viewBox="0 0 512 512" style="enable-background:new 0 0 512 512;" xml:space="preserve">
<g>
	<g>
		<path d="M256,0C114.84,0,0,114.841,0,256c0,141.16,114.84,256,256,256c141.16,0,256-114.84,256-256C512,114.841,397.16,0,256,0z
			 M256,493.037C125.296,493.037,18.963,386.704,18.963,256c0-61.948,23.898-118.411,62.945-160.684l138.18,138.18L98.447,355.136
			c-3.704,3.702-3.704,9.706,0,13.408l53.634,53.637c1.778,1.778,4.19,2.778,6.704,2.778c2.514,0,4.926-1,6.704-2.778
			L287.13,300.539l129.555,129.553C374.412,469.139,317.949,493.037,256,493.037z M287.086,273.741l-40.139-40.044
			c5.22-4.778,11.931-7.326,19.076-7.326c0.016,0,0.033,0,0.049,0c7.595,0,14.734,2.849,20.1,8.214
			C296.958,245.37,297.247,262.629,287.086,273.741z M292.201,215.017l74.421-74.422l13.408,13.41l-74.421,74.422
			c-1.727-2.608-3.734-5.083-6.03-7.378C297.301,218.771,294.826,216.76,292.201,215.017z M273.722,287.132L158.785,402.067
			L118.56,361.84l114.935-114.936L273.722,287.132z M430.093,416.685l-129.599-129.6c10.264-10.826,14.403-25.334,12.442-39.178
			c0.016-0.015,0.035-0.025,0.051-0.041l87.157-87.157c3.704-3.704,3.704-9.706,0-13.408l-26.817-26.818
			c-1.778-1.779-4.19-2.778-6.704-2.778c-2.514,0-4.926,0.999-6.704,2.777l-87.157,87.158c-0.012,0.011-0.021,0.153-0.032,0.165
			c-2.181-0.308-4.387-0.397-6.627-0.397c-0.025,0-0.053,0-0.079,0c-12.213,0-23.678,4.494-32.484,12.85L95.315,81.97
			C137.588,42.924,194.051,18.994,256,18.994c130.704,0,237.037,106.319,237.037,237.022
			C493.037,317.965,469.139,374.412,430.093,416.685z"/>
	</g>
</g>
<g>
</g>
<g>
</g>
<g>
</g>
<g>
</g>
<g>
</g>
<g>
</g>
<g>
</g>
<g>
</g>
<g>
</g>
<g>
</g>
<g>
</g>
<g>
</g>
<g>
</g>
<g>
</g>
<g>
</g>
</svg>
