<?xml version="1.0" encoding="iso-8859-1"?>
<!-- Generator: Adobe Illustrator 19.0.0, SVG Export Plug-In . SVG Version: 6.00 Build 0)  -->
<svg version="1.1" id="Layer_1" xmlns="http://www.w3.org/2000/svg" xmlns:xlink="http://www.w3.org/1999/xlink" x="0px" y="0px"
	 viewBox="0 0 512 512" style="enable-background:new 0 0 512 512;" xml:space="preserve">
<g>
	<g>
		<path d="M502.714,245.423l-195.544-25.505l95.042-95.042c4.165-4.167,4.165-10.919,0-15.086c-4.167-4.164-10.919-4.164-15.086,0
			l-95.041,95.042L266.578,9.286C265.885,3.974,261.36,0,256.001,0s-9.884,3.974-10.577,9.286l-27.246,208.891L9.286,245.423
			C3.974,246.116,0,250.642,0,256s3.974,9.884,9.286,10.577l195.546,25.507l-95.04,95.042c-4.166,4.164-4.166,10.919,0,15.083
			c2.083,2.083,4.812,3.125,7.543,3.125c2.73,0,5.459-1.042,7.543-3.125l95.04-95.042l25.507,195.547
			c0.693,5.313,5.219,9.286,10.577,9.286s9.884-3.974,10.577-9.286l27.246-208.891l208.889-27.246
			C508.026,265.884,512,261.358,512,256S508.026,246.116,502.714,245.423z M213.425,257.38l1.898,14.556L93.137,256l122.186-15.938
			l-1.898,14.557C213.305,255.537,213.305,256.463,213.425,257.38z M256.001,93.137l15.937,122.185l-14.558-1.898
			c-0.917-0.12-1.844-0.12-2.761,0l-14.556,1.898L256.001,93.137z M234.758,256l2.452-18.793l18.79-2.45l5.449,0.711l-25.98,25.981
			L234.758,256z M256.001,418.862L240.064,296.68l14.556,1.898c0.458,0.06,0.919,0.089,1.38,0.089c0.461,0,0.922-0.029,1.38-0.089
			l14.558-1.898L256.001,418.862z M274.793,274.79L256,277.242l-5.445-0.711l25.979-25.979l0.711,5.448L274.793,274.79z
			 M296.68,271.936l1.898-14.556c0.12-0.917,0.12-1.844,0-2.761l-1.898-14.557L418.863,256L296.68,271.936z"/>
	</g>
</g>
<g>
</g>
<g>
</g>
<g>
</g>
<g>
</g>
<g>
</g>
<g>
</g>
<g>
</g>
<g>
</g>
<g>
</g>
<g>
</g>
<g>
</g>
<g>
</g>
<g>
</g>
<g>
</g>
<g>
</g>
</svg>
