<svg xmlns="http://www.w3.org/2000/svg" width="93.564" height="93.564" viewBox="0 0 93.564 93.564"><g transform="translate(-181.789 -457.009)"><g transform="translate(67.291 442.116)"><rect width="93.564" height="93.564" rx="0.31" transform="translate(114.498 14.893)" fill="#0a75e3"/></g><g transform="translate(-135.536 482.319)"><path d="M375.558-4.434,340.714,2.16a.28.28,0,0,0-.187.406l.25.594L343.308,9.6v.031c.8,2.419,2.23,5.967,3.813,9.688l8,20.344a.491.491,0,0,0,.5.281l33.406-6.406-2.344,5.813-33.656,6.375a.428.428,0,0,1-.469-.25l-14.187-36-.719.125a.28.28,0,0,0-.187.406l14.625,37.125a.428.428,0,0,0,.469.25L387.4,40.753a.359.359,0,0,0,.188-.125c.005-.005.027.005.031,0V40.6l3.156-7.5-.062-.062c0-.042-.014-.049-.031-.094L376.027-4.184a.428.428,0,0,0-.469-.25Zm-35.344,9-1.437,3.656,14.5,36.5,32.563-6.312,1.375-3.469-32.25,6.125a.389.389,0,0,1-.437-.25L340.214,4.566ZM365.4,6.941a6.363,6.363,0,0,1,.844.875,4.217,4.217,0,0,1,.5.687l.031.125L366.5,8.5l-.25-.125.125.375c.111.339.369.99.656,1.656.062.144.385.9.719,1.688s.654,1.564.719,1.719.185.408.25.563.26.612.438,1.031.345.859.375.969a1.653,1.653,0,0,1-.219,1.438,2.805,2.805,0,0,1-.687.625c-.088.053-.176.079-.187.094a2.108,2.108,0,0,0,.125.406,7.648,7.648,0,0,1,.406,2.219c-.005.513-.005.492-.219-.219-.187-.622-.366-1.1-.687-1.906-.148-.373-.148-.39-.219-.406a4.653,4.653,0,0,1-.906-.281,12.237,12.237,0,0,1-1.281-.687c-.166-.1-.415-.256-.562-.344a14.53,14.53,0,0,0-2-1c-.127-.029-.082.039.125.188a2.9,2.9,0,0,1,1.469,2.094.812.812,0,0,1-.156.594,2.224,2.224,0,0,1-.562.625,6.021,6.021,0,0,1-1.062.719c-.356.218-.752.477-.875.563a3.905,3.905,0,0,0-1.375,1.531l-.094.188.063.219a2.284,2.284,0,0,0,1.406,1.688,3.257,3.257,0,0,0,1.438.063,3.774,3.774,0,0,0,1.125-.469.179.179,0,0,0,.031-.125c0-.2.048-.853.094-1.156l.063-.312-.312-.187c-.254-.162-.28-.222-.281-.281,0-.153.144-.546.219-.562a.541.541,0,0,1,.125.031c.086.023.087,0,.25-.25a4.712,4.712,0,0,0,.563-1.094c.039-.142.042-.166-.062-.187a.412.412,0,0,1-.281-.344c-.065-.492.143-.79.406-.594a.847.847,0,0,1,.156.125,1.392,1.392,0,0,1,.156.563c.012.142-.006.147.094.219.126.09.2.176.188.281s-.1.1-.25,0l-.125-.094-.062.125c-.115.235-.555.975-.687,1.156l-.125.156.25.156a1.176,1.176,0,0,1,.25.188c.018.07-.027.207-.156.531a2.651,2.651,0,0,0-.187.906,1.542,1.542,0,0,0,.031.531A11.565,11.565,0,0,0,366.4,22.91a8.33,8.33,0,0,0,.906-1.094c.277-.406.276-.414.188-.531-.023-.031-.121-.177-.219-.312-.194-.271-.272-.362-.75-.937-.177-.213-.435-.525-.562-.687l-.219-.281-.031-.25c-.015-.233.01-.437.063-.469a1.413,1.413,0,0,1,.313.188c.141.1.4.27.594.406a2.816,2.816,0,0,1,.375.281c0,.059-.13.071-.281.031a.3.3,0,0,0-.187,0,2.915,2.915,0,0,0,.531.75,2.7,2.7,0,0,1,.625.938,1.842,1.842,0,0,1-.25,1.656,8.135,8.135,0,0,1-2.156,2.125c-.28.2-.309.224-.25.438a1.888,1.888,0,0,0,.625.906c.465.332.881.175,1.375-.531a7.442,7.442,0,0,0,.688-1.312,5.455,5.455,0,0,1,2.25-2.75c.47-.345.44-.338.688-.531a.932.932,0,0,1,.219-.125,1.035,1.035,0,0,0,.156-.125l.125-.156-.125-.25a4,4,0,0,1-.531-1.625,1.22,1.22,0,0,1,.281-.875.989.989,0,0,1,.531-.156c.223.025.577.359.813.75a2.132,2.132,0,0,1-.031,2.219l-.125.219.094.094a1.425,1.425,0,0,0,.625.281,1.718,1.718,0,0,0,.844-.125,1.961,1.961,0,0,0,.719-.687l.031-.062L373.87,19.1c-.259-.674-.52-1.382-.594-1.562-.4-.989-.653-1.606-.906-2.219-.123-.3-.613-1.441-.75-1.781-.111-.276-1.017-2.505-1.656-4.063-.145-.353-.274-.7-.281-.75a1.744,1.744,0,0,1,.094-.531,6.344,6.344,0,0,1,.875,1,5.664,5.664,0,0,1,.406.688c.025.087-.141.025-.312-.125-.126-.11-.131-.094-.062.094.034.091.214.625.406,1.156.317.875.476,1.239,1.188,3,.119.3.274.7.344.875s.26.608.406.969.355.952.5,1.313c.335.832.513,1.2.688,1.625a4.89,4.89,0,0,1,.25.781,2.4,2.4,0,0,1,.063,1.313,1.294,1.294,0,0,1-.687.813,1.368,1.368,0,0,1-.531.219,1.489,1.489,0,0,1-.469.063,1.687,1.687,0,0,1-.969-.625.83.83,0,0,0-.219-.187,11.744,11.744,0,0,0-1.25.875,16.814,16.814,0,0,0-1.281,1.094,6.905,6.905,0,0,0-1.156,1.938,7.614,7.614,0,0,1-.687,1.219.907.907,0,0,1-.812.375,1.722,1.722,0,0,1-1.312-.844,4.167,4.167,0,0,1-.312-.594c-.02-.072-.023-.092-.344.031a7.261,7.261,0,0,1-1.281.344,2.073,2.073,0,0,1-1.812-.5,3.233,3.233,0,0,1-.844-1.5c-.073-.235-.14-.451-.156-.469s-.074.014-.156.125c-.061.082-.152.222-.219.313a.7.7,0,0,1-.5.344,1.294,1.294,0,0,1-1.031-.219,1.862,1.862,0,0,1-.781-1.094,3.5,3.5,0,0,1-.094-1.281c.032-.442.041-.5.063-.656a.448.448,0,0,0,0-.156l-.156-.031a2.169,2.169,0,0,1-.687-.25,1.586,1.586,0,0,1-.781-1.094,3.854,3.854,0,0,1,.063-2.062l.094-.344-.062-.094a1.785,1.785,0,0,1-.281-.687A3.794,3.794,0,0,1,356.276,14l.125-.312-.094-.156a2.4,2.4,0,0,1-.125-.937,2.255,2.255,0,0,1,.031-.312,16.509,16.509,0,0,1,2.031-1.781,27.348,27.348,0,0,1,3.313-2.188c.074-.04.242-.143.375-.219.283-.16,1.171-.588,1.563-.781.452-.223.75-.247,1.031-.062s.329.709.125,1.438a7.864,7.864,0,0,1-.719,1.656c-.115.221-.261.572-.344.75a2.486,2.486,0,0,1-.156.313,1.39,1.39,0,0,1,.031-.5,4.854,4.854,0,0,1,.563-1.375,9.256,9.256,0,0,0,.5-1.031.6.6,0,0,0-.094-.437.528.528,0,0,0-.187-.125c-.1-.036-.13-.008-.531.094a6.374,6.374,0,0,0-2.125,1c-.944.571-1.1.678-2.25,1.469-.078.054-.221.157-.312.219a18.15,18.15,0,0,0-2.531,2.031.212.212,0,0,0-.062.094,1.026,1.026,0,0,0,.156.063c.082.032.245.1.375.156l.906.375.906.375c.137.057.374.136.5.188s.357.145.531.219.446.19.594.25l.469.188c.71.29.665.276.719.219a3.633,3.633,0,0,1,.75-.469,4.007,4.007,0,0,1,.594-.187l.313-.094-.031-.094a6.013,6.013,0,0,0-.312-.594c-.434-.738-.716-1.192-.844-1.469a3.9,3.9,0,0,1-.312-1.062,1.33,1.33,0,0,1,.063-.531c.03-.006,1.045,1.194,1.031,1.219a1.22,1.22,0,0,1-.187-.031l-.187-.031.063.125a5.776,5.776,0,0,0,.406.875,4.235,4.235,0,0,0,.906,1.219,4.129,4.129,0,0,0,.875.5c.22.088.242.11.313.25a1.859,1.859,0,0,1,.156.688v.094L365,15.191a2.488,2.488,0,0,0-.75-.25,2.028,2.028,0,0,0-.937,0,1.729,1.729,0,0,0-.687.281l-.125.063.5.25c.755.372,2.081,1.065,2.469,1.281.619.346,1.128.635,1.313.719a2.107,2.107,0,0,0,.625.188c.039-.008.062-.007-.281-.906-.266-.7-.761-1.923-.969-2.406-.33-.766-1.248-3.046-1.312-3.281a.741.741,0,0,1,.031-.312l.031-.219.094.094a8.691,8.691,0,0,1,.938,1.063,5.013,5.013,0,0,1,.313.531.732.732,0,0,1-.25-.094c-.131-.066-.243-.127-.25-.125s.015.054.031.094.168.434.344.875.544,1.32.813,1.969c.543,1.312.8,1.944.969,2.375a1.8,1.8,0,0,0,.125.313.688.688,0,0,0,.25,0,.767.767,0,0,0,.375-.125c.338-.2.633-.576.594-.719-.023-.082-.594-1.571-.75-1.937-.067-.158-.185-.435-.25-.594s-.245-.58-.406-.969-.369-.866-.437-1.031-.185-.435-.25-.594c-.126-.3-.43-1.069-.625-1.531-.064-.151-.2-.438-.281-.625s-.263-.675-.437-1.062c-.393-.871-.455-.974-.437-1.281a2.2,2.2,0,0,1,.031-.281Zm2.094.188c.061.041.666.709.844.937a4.991,4.991,0,0,1,.5.75l.031.094-.062-.031c-.043-.023-.153-.1-.25-.156a.979.979,0,0,0-.187-.094c-.006.011.2.54.656,1.594.127.294.4.9.594,1.344s.357.842.375.875l.031.063.031-.062a1.384,1.384,0,0,0,.094-.25l.063-.156-.187-.187c-.239-.236-.281-.334-.219-.531.081-.259.248-.389.406-.281a.927.927,0,0,1,.313.813.632.632,0,0,0,0,.219.386.386,0,0,1,.063.125c0,.064-.023.078-.094.063s-.075-.052-.187.219c-.028.067-.086.206-.125.281l-.062.125.094.219a5.682,5.682,0,0,1,.531,2.344c-.016.245,0,.246-.031.125A13.916,13.916,0,0,0,370,13.691c-.171-.337-.192-.345-.312-.187a4.569,4.569,0,0,1-.531.594.355.355,0,0,1-.062.031c.03-.056.121-.206.281-.469l.313-.562-.094-.281c-.861-2.16-1.387-3.37-1.906-4.469a5.5,5.5,0,0,1-.25-.594c-.044-.2,0-.667.063-.625Zm-6.312.188c.036-.008-.022.164-.094.281-.086.141-.185.219-1.187.906-.824.565-1.548,1.093-1.844,1.313-.107.079-.212.155-.219.156a.838.838,0,0,1,.031-.125,1.239,1.239,0,0,1,.063-.219,4.717,4.717,0,0,1,.844-.687c.457-.324,2.367-1.616,2.406-1.625Zm3.906,1.812a.766.766,0,0,1,.5.063.536.536,0,0,1,.094.844.312.312,0,0,1-.312.125c-.186-.041-.235-.066-.312-.406A2.568,2.568,0,0,1,365,9.285c0-.134.028-.142.094-.156Zm-2.531.094a1.445,1.445,0,0,1,.094.375c.047.318.1.451.219.531s.142.053.188-.062c.02-.051.048-.091.063-.094.051-.011.066.183.031.313-.048.179-.162.254-.25.188a1.459,1.459,0,0,1-.375-1.063c0-.157.013-.218.031-.187Zm2.781.188c-.1-.01-.177,0-.187.031a.833.833,0,0,0,.031.219c.034.151.058.2.094.219a.455.455,0,0,0,.344-.125.169.169,0,0,0-.031-.25.564.564,0,0,0-.25-.094Zm2.188.375.031.125a2.508,2.508,0,0,0,.188.719.486.486,0,0,0,.25.25c.049.014.061,0,.094-.125s.065-.134.094-.094a.494.494,0,0,1,.031.469c-.047.08-.169.09-.281.031a.993.993,0,0,1-.406-.812,2.665,2.665,0,0,1,0-.406V9.785Zm4.438,0,.313.313a6,6,0,0,1,.875,1c.231.368.223.393-.062.25-.133-.067-.243-.126-.25-.125s-.016.014.156.469c.239.629.3.778,1.125,2.688.28.647.558,1.333.75,1.875a15.009,15.009,0,0,1,.5,1.781,5.754,5.754,0,0,1-.094.688c-.011-.038-.123-.3-.219-.562s-.2-.6-.25-.75c-.467-1.369-.536-1.52-1.656-4.156-.192-.453-.518-1.213-.719-1.687a10.138,10.138,0,0,0-.437-.937A.833.833,0,0,1,371.9,10l.063-.219Zm-12.062.906.031.094a1.542,1.542,0,0,1,.063.375,1.2,1.2,0,0,0,.188.719c.133.151.156.154.25.063l.094-.094.031.125a.266.266,0,0,1-.406.313c-.125-.078-.181-.2-.25-.531a3.077,3.077,0,0,1-.031-.906l.031-.156Zm10.219.688c-.158-.006-.147.139.031.25.129.081.191.068.156-.062a.26.26,0,0,0-.187-.187Zm-11.781.188c.034-.035.083.211.094.469a1.034,1.034,0,0,0,.188.656c.129.154.163.17.25.094.04-.034.078-.072.094-.062.045.028.046.227,0,.313a.274.274,0,0,1-.344.094c-.175-.1-.278-.365-.312-.781a3.258,3.258,0,0,1,.031-.781Zm6.313.313c.018-.009.026,0,.063,0,.145.01.211.047.25.188a.566.566,0,0,1,.031.156c-.006.011-.079-.009-.156-.031-.281-.08-.283-.064-.094.688l.156.625-.187-.156c-.382-.334-.61-.45-.812-.406-.156.034-.289-.054-.344-.25-.034-.118,0-.137.156-.125a1.547,1.547,0,0,1,.688.281c.1.073.19.108.188.094s0-.039,0-.062-.013-.146-.031-.25a1.058,1.058,0,0,1,.063-.687C364.635,11.912,364.634,11.887,364.652,11.878Zm-3.312.344c.024-.011.026-.006.063,0a.3.3,0,0,1,.281.375l-.031.094-.125-.094c-.309-.174-.366,0-.187.656.124.455.194.891.125.906a1.331,1.331,0,0,1-.219-.219c-.32-.366-.49-.48-.687-.437s-.382-.133-.406-.406c-.009-.1.022-.1.125-.125.2-.042.384.071.75.406.238.218.264.2.188-.094-.125-.473-.114-.841.031-1a.253.253,0,0,1,.094-.062Zm12.844.688a1.284,1.284,0,0,1,.063.344,4.158,4.158,0,0,0,.094.438.9.9,0,0,0,.25.438l.094.063.031-.062c.043-.1.117-.079.156.063s-.019.258-.125.281c-.056.012-.1.005-.187-.062-.232-.171-.365-.5-.406-1.187-.013-.219.014-.317.031-.312ZM366.9,13l.031.125c.094.63.1.728.188.875a.9.9,0,0,0,.375.281c.013,0,.027-.077.031-.156.007-.149,0-.172.063-.125a.561.561,0,0,1,.094.531.223.223,0,0,1-.281.063,1.35,1.35,0,0,1-.5-.844,1.834,1.834,0,0,1,0-.625V13Zm4.094.438a2.227,2.227,0,0,1,.031.313c.039.526.161.8.375.938l.094.031.031-.125.063-.125.031.156a.646.646,0,0,1,0,.313c-.029.1-.036.106-.125.125a.2.2,0,0,1-.187-.031.955.955,0,0,1-.281-.594,3.059,3.059,0,0,1-.062-.937c.012-.094.019-.1.031-.062Zm-14.437.375-.031.094a4.534,4.534,0,0,0-.344,1.313A1.179,1.179,0,0,0,356.5,16c.1.051.195.008.281-.156.1-.2.172-.307.188-.25a1.215,1.215,0,0,1-.031.531,2.528,2.528,0,0,1-.406.719.714.714,0,0,0-.187.406,3.455,3.455,0,0,0,.031,2,1.671,1.671,0,0,0,.438.563.928.928,0,0,0,.906,0,8.832,8.832,0,0,0,1.688-2.062c.467-.759,1.158-1.829,1.219-1.906l.063-.094-.969-.469c-1.131-.522-2.531-1.168-2.906-1.344l-.25-.125Zm1.813,1.313a.184.184,0,0,1,.094.031l.094.063.063.344.094.313.094.094c.212.149.37.371.313.469-.017.03-.057.037-.156-.031-.275-.189-.251-.2-.344.094a6.244,6.244,0,0,1-1.344,2.156l-.187.219.125-.219c.068-.119.3-.516.531-.906a8.8,8.8,0,0,0,.719-1.406l.031-.125-.125-.062a.755.755,0,0,1-.344-.437.427.427,0,0,1,.25-.562c.048-.016.065-.034.094-.031Zm7.281.031a1.061,1.061,0,0,1,.031.281c.033.491.118.714.313.844l.063.031.063-.125c.045-.086.066-.111.094-.094.056.035.057.257,0,.375s-.138.179-.25.125c-.158-.076-.236-.156-.312-.437a2.056,2.056,0,0,1-.062-.781c.014-.158.048-.226.063-.219Zm-7.344.344c-.021.005-.034.024-.062.063s-.039.081,0,.125a.351.351,0,0,0,.25.094c.032-.006.059-.049.031-.125a.247.247,0,0,0-.125-.125C358.358,15.513,358.329,15.5,358.308,15.5Zm12.875.063c.058-.04.184.012.563.25l.344.219-.062.219a.7.7,0,0,1-.219.406c-.028.015-.16-.055-.406-.187-.2-.11-.37-.188-.375-.187a2.852,2.852,0,0,0-.125.281.923.923,0,0,1-.156.281,1.9,1.9,0,0,1-.781-.437,1.489,1.489,0,0,1,.063-.344l.094-.312.094.031c.051.017.229.127.406.219l.313.156L371,16.1c.022-.04.057-.167.094-.281a1.075,1.075,0,0,1,.094-.25Zm-2.469.188c.011.007.009.063,0,.125-.015.1-.054.171-.406.5-.217.2-.427.4-.469.438l-.062.063v-.094a.3.3,0,0,1,0-.125c.031-.053.645-.67.813-.812C368.662,15.785,368.7,15.747,368.714,15.753Zm-7.312.406-.125.125a12.633,12.633,0,0,0-1.562,2.25c-.131.209-.476.715-.625.906a5.331,5.331,0,0,1-1.031,1c-.051.025-.1.066-.125.219a4.564,4.564,0,0,0,0,1.781,1.549,1.549,0,0,0,.781,1.031.818.818,0,0,0,.719-.219c.158-.123.2-.173.531-.75a5.258,5.258,0,0,1,.875-1.219,10.4,10.4,0,0,1,1.531-1.187,9.81,9.81,0,0,0,1.844-1.469c.128-.139.22-.245.219-.25a3.38,3.38,0,0,0-.531-.625,8.573,8.573,0,0,0-2.125-1.406Zm.719,1.656c.037-.038.224.033.563.25l.344.219L363,18.41c-.108.393-.188.484-.281.5a1.164,1.164,0,0,1-.281-.125c-.441-.24-.476-.243-.5-.187-.012.026-.071.15-.125.281s-.089.249-.094.25a2.5,2.5,0,0,1-.812-.406c-.034-.037-.033-.1.031-.344.043-.161.085-.329.094-.344.022-.04.124,0,.5.188a3.021,3.021,0,0,0,.344.156c.029-.006.082-.12.156-.344a1.063,1.063,0,0,1,.094-.219Zm9.063.594a.375.375,0,0,0-.187.156.7.7,0,0,0-.031.75,2.849,2.849,0,0,0,.594.875c.035.027.17-.1.406-.344.133-.136.269-.357.25-.437a1.494,1.494,0,0,0-.781-.969.416.416,0,0,0-.25-.031ZM373,18.6a.855.855,0,0,1,.031.219,1.122,1.122,0,0,0,.344.938c.1.056.132.008.125-.125-.005-.09.037-.137.063-.062a.542.542,0,0,1-.031.438.156.156,0,0,1-.125.094c-.086.018-.124.032-.187-.031a1.165,1.165,0,0,1-.219-.625,4.059,4.059,0,0,1-.031-.781C372.971,18.581,372.987,18.564,373,18.6Zm-12.594.594a.466.466,0,0,1,.219.094c.1.066.131.078.156.188a.373.373,0,0,1,0,.156c-.017.058-.083.043-.187-.031a.313.313,0,0,0-.156-.062c-.05.011-.046.207.031.625a2.423,2.423,0,0,1,.063.719c-.013.06,0,.055-.125-.094a2.567,2.567,0,0,0-.312-.312c-.175-.136-.2-.131-.312-.094s-.122.012-.25-.062c-.152-.088-.156-.145-.156-.344,0-.136.039-.178.156-.156a2.5,2.5,0,0,1,.656.406c.156.129.209.143.188.063a3.831,3.831,0,0,1-.094-.375,1,1,0,0,1,0-.5C360.311,19.221,360.3,19.2,360.4,19.191Zm9.219.031c.03,0,.077,0,.094.031.082.158.089.229.031.25a.143.143,0,0,1-.125-.031c-.047-.046-.043-.04-.125.031s-.085.11-.031.188c.083.12.337.122.531,0s.234-.12.25-.062c.026.093-.092.247-.281.406a1.8,1.8,0,0,0-.25.25c-.085.115-.272.253-.281.219a1.565,1.565,0,0,1,.125-.281c.053-.107.041-.143-.125-.281-.181-.15-.2-.246-.125-.406.1-.2.221-.313.313-.312Zm-4.437.375a.1.1,0,0,0-.031.094.337.337,0,0,0,.281.188c.047-.01.069-.008.031-.094C365.406,19.653,365.242,19.558,365.183,19.6Zm-1.125,1.063c.024-.009.022.031.031.063.023.08-.085.275-.187.375-.052.051-.391.335-.781.625a11.9,11.9,0,0,0-1.312,1.063l-.062.063.125.094c.2.193.244.4.063.344a1.368,1.368,0,0,1-.187-.094c-.1-.058-.089-.084-.125-.219a.619.619,0,0,1-.031-.25c.037-.223.1-.307.75-.781.336-.246.683-.479.75-.531s.228-.2.375-.312.352-.245.438-.312A1.879,1.879,0,0,1,364.058,20.66Zm-5.25.156c.005.026,0,.1,0,.219,0,.5.1.78.25.906.045.037.051.039.094,0a.341.341,0,0,0,.094-.125l.031-.094.031.156a.359.359,0,0,1,0,.281c-.051.124-.089.148-.187.156a.338.338,0,0,1-.312-.219.936.936,0,0,1-.094-.437,2.339,2.339,0,0,1,.063-.812c.015-.032.026-.057.031-.031Zm7,.219c.034-.027.1-.015.219,0a.63.63,0,0,1,.594.469.535.535,0,0,1-.406.594c-.122.026-.134.022-.219-.031s-.131-.063-.156-.156a4.041,4.041,0,0,1-.062-.687c-.005-.109,0-.161.031-.187Zm.125.281c-.068.018-.07.1-.031.281.034.164.047.189.094.219a.329.329,0,0,0,.344-.062,1.277,1.277,0,0,0,.125-.125c.037-.048.026-.052-.062-.125a.764.764,0,0,0-.375-.187.26.26,0,0,0-.094,0Zm6.469.969c0,.006.028-.013.031,0a3.323,3.323,0,0,1,.031.344,1.04,1.04,0,0,0,.219.719c.122.114.17.089.219-.094a.923.923,0,0,1,.063-.187c.03-.041.046-.025.063.094a1.076,1.076,0,0,1-.062.469.222.222,0,0,1-.25.094c-.2-.054-.33-.516-.344-1.125a1.515,1.515,0,0,1,.031-.312Zm-9.031.188a.441.441,0,0,1,.219.063c.167.089.207.124.188.281l-.031.094-.156-.062c-.184-.08-.245-.09-.25-.031,0,.02.08.25.156.5a1.91,1.91,0,0,1,.125.625,1.325,1.325,0,0,1,0,.219c-.009.016-.072-.011-.125-.062s-.132-.129-.187-.187c-.2-.213-.4-.316-.562-.281-.116.025-.2-.043-.25-.219-.054-.2-.025-.231.063-.25.132-.028.409.124.719.406a.545.545,0,0,0,.125.094c.033-.007.013-.132-.062-.406a1.448,1.448,0,0,1-.062-.687C363.294,22.511,363.318,22.475,363.37,22.472Zm8.063.625a.417.417,0,0,1,.344.156c.078.089.085.087.063.188a.56.56,0,0,1-.031.125.959.959,0,0,1-.187-.062c-.172-.073-.264-.08-.281,0a3.312,3.312,0,0,0,.094.469,2.259,2.259,0,0,1,.094.875c-.009.016-.114-.056-.219-.187-.244-.3-.427-.466-.625-.469s-.241-.007-.344-.125a.491.491,0,0,1-.125-.406c.016-.075.029-.064.094-.062.237.006.491.158.875.563l.188.188-.031-.125c-.009-.067-.035-.244-.062-.406a1.792,1.792,0,0,1-.031-.406C371.265,23.255,371.348,23.115,371.433,23.1Zm-11.281.688a1.056,1.056,0,0,1,0,.219.81.81,0,0,0,.125.594c.086.086.129.078.219,0,.035-.031.051-.039.063-.031a.3.3,0,0,1,.063.219c-.042.2-.157.262-.312.188a.862.862,0,0,1-.281-.781C360.035,24.024,360.123,23.766,360.152,23.785Zm9.219.719a.228.228,0,0,1,.188.125c.012.043.008.051-.062.063-.137.022-.135.006-.156.094l-.031.094v-.094c-.007-.11.022-.273.063-.281Zm.781.438c.024-.01.032.008.063.031s.042.025,0,.063c-.064.056-.092.115-.062.156s.1.037.219-.031a.451.451,0,0,1,.125-.062c.043.027-.065.2-.25.344-.281.225-.393.295-.5.281a.373.373,0,0,0-.219.063.509.509,0,0,1-.375.063.44.44,0,0,0-.187.031.272.272,0,0,1-.219,0c-.084-.041-.06-.048-.062-.187,0-.28.078-.437.188-.344.071.061.068.072-.031.156-.124.106-.156.192-.062.25.04.025.1.045.125.031a1.459,1.459,0,0,0,.281-.219c.018-.025,0-.059-.062-.156-.087-.145-.1-.152,0-.125.063.018.088.033.125.219.042.217.062.219.188.156.066-.033.076-.108.094-.344.01-.134.033-.17.094-.219.083-.067.17-.064.188,0,.006.025-.027.023-.062.031-.072.017-.159.154-.125.188.013.013.056.008.094,0,.064-.014.079-.01.094.094s.017.11.094.094a.263.263,0,0,0,.125-.062c.051-.05.062-.075.031-.187a.26.26,0,0,1,0-.219.235.235,0,0,1,.094-.094Zm-6.094.563a1.843,1.843,0,0,1,.063.281c.063.306.129.429.281.531l.094.063.063-.125c.078-.129.091-.145.125.031.018.092-.048.334-.094.344a.254.254,0,0,0-.062.031c-.018.01-.063,0-.094,0a.357.357,0,0,1-.125-.031.777.777,0,0,1-.219-.375,1.564,1.564,0,0,1-.031-.75Z" fill="#fff"/></g></g></svg>